<svg width="100%" height="100%" viewBox="0 0 483 602" preserveAspectRatio="xMidYMid meet" xmlns="http://www.w3.org/2000/svg"><rect x="0" y="0" width="483" height="602" fill="white" stroke="none" /><text x="10" y="25" font-size="16" font-weight="bold" fill="#333">dau_theorem_proving</text><text x="10" y="45" font-size="11" fill="#666">Unified D3: 3V, 4P, 5C, 6L</text><g id="cuts"><rect x="85.0" y="110.0" width="313.2" height="392" rx="8" ry="8" fill="rgba(0,0,0,0.08)" stroke="#000000" stroke-width="1.5" /><rect x="105.0" y="130.0" width="241.2" height="294" rx="8" ry="8" fill="#FFFFFF" stroke="#000000" stroke-width="1.5" /><rect x="125.0" y="150.0" width="169.2" height="196" rx="8" ry="8" fill="rgba(0,0,0,0.08)" stroke="#000000" stroke-width="1.5" /><rect x="145.0" y="170.0" width="124.19999999999999" height="156" rx="8" ry="8" fill="#FFFFFF" stroke="#000000" stroke-width="1.5" /><rect x="165.0" y="190.0" width="52.19999999999999" height="58" rx="8" ry="8" fill="rgba(0,0,0,0.08)" stroke="#000000" stroke-width="1.5" /></g><g id="ligatures"><path d="M 294.2 395.2934949961509 L 374.7 399.1666666666667" stroke="#000000" stroke-width="2.5" stroke-linecap="butt" fill="none" /><path d="M 291.41865008880995 386.0 L 322.7 301.16666666666663" stroke="#000000" stroke-width="2.5" stroke-linecap="butt" fill="none" /><path d="M 217.2 297.2277479091995 L 322.7 301.16666666666663" stroke="#000000" stroke-width="2.5" stroke-linecap="butt" fill="none" /><path d="M 215.1529284164859 288.0 L 245.7 220.16666666666669" stroke="#000000" stroke-width="2.5" stroke-linecap="butt" fill="none" /><path d="M 344.31760722347633 464.0 L 374.7 399.1666666666667" stroke="#000000" stroke-width="2.5" stroke-linecap="butt" fill="none" /><path d="M 197.2 219.1303418803419 L 245.7 220.16666666666669" stroke="#000000" stroke-width="2.5" stroke-linecap="butt" fill="none" /></g><g id="elements"><circle cx="374.7" cy="399.1666666666667" r="3.5" fill="#000000" stroke="none" /><circle cx="245.7" cy="220.16666666666669" r="3.5" fill="#000000" stroke="none" /><circle cx="322.7" cy="301.16666666666663" r="3.5" fill="#000000" stroke="none" /><text x="340.1" y="478.0" text-anchor="middle" font-size="12" font-family="Times New Roman" fill="#000000" font-weight="normal">P</text><text x="191.1" y="224.0" text-anchor="middle" font-size="12" font-family="Times New Roman" fill="#000000" font-weight="normal">S</text><text x="211.1" y="302.0" text-anchor="middle" font-size="12" font-family="Times New Roman" fill="#000000" font-weight="normal">R</text><text x="288.1" y="400.0" text-anchor="middle" font-size="12" font-family="Times New Roman" fill="#000000" font-weight="normal">Q</text></g><text x="10" y="582" font-size="10" fill="#7f8c8d" font-family="monospace">~[ *x (P x) ~[ *y (Q x y) ~[ ~[ *z (R y z) ~[ (S z) ] ] ] ] ]</text></svg>