<svg width="488" height="399" xmlns="http://www.w3.org/2000/svg"><rect x="0" y="0" width="488" height="399" fill="white" stroke="none" /><text x="10" y="20" font-size="14" font-weight="bold" fill="black">roberts_domain_modeling (Bottom-Up with Cut Rectangles)</text><text x="10" y="35" font-size="10" fill="gray">Graphviz: 3V, 6E, 2C, 8L</text><rect x="55.0" y="75.0" width="378.5575" height="249.47000000000003" fill="black" stroke="black" stroke-width="2.0" fill-opacity="0.08" rx="8.0" ry="8.0" /><rect x="70.0" y="90.0" width="207.875" height="182.0" fill="white" stroke="black" stroke-width="2.0" rx="8.0" ry="8.0" /><path d="M 251.6975 307.47 L 169.855 171.829" fill="none" stroke="black" stroke-width="2.0" /><path d="M 120.6 144.026 L 113.85499999999999 171.829" fill="none" stroke="black" stroke-width="2.0" /><path d="M 212.105 144.026 L 200.495 117.0" fill="none" stroke="black" stroke-width="2.0" /><path d="M 120.6 144.026 L 109.0 117.0" fill="none" stroke="black" stroke-width="2.0" /><path d="M 251.6975 307.47 L 346.5575 287.92" fill="none" stroke="black" stroke-width="2.0" /><path d="M 251.6975 307.47 L 245.355 171.829" fill="none" stroke="black" stroke-width="2.0" /><path d="M 212.105 144.026 L 221.355 171.829" fill="none" stroke="black" stroke-width="2.0" /><path d="M 251.6975 307.47 L 238.875 257.0" fill="none" stroke="black" stroke-width="2.0" /><text x="382.5575" y="287.92" text-anchor="middle" dominant-baseline="central" font-size="12" font-family="Times New Roman" fill="black">Professor</text><text x="238.875" y="251.0" text-anchor="middle" dominant-baseline="central" font-size="12" font-family="Times New Roman" fill="black">Person</text><text x="141.855" y="171.829" text-anchor="middle" dominant-baseline="central" font-size="12" font-family="Times New Roman" fill="black">Teaches</text><text x="109.0" y="111.0" text-anchor="middle" dominant-baseline="central" font-size="12" font-family="Times New Roman" fill="black">Course</text><text x="233.355" y="171.829" text-anchor="middle" dominant-baseline="central" font-size="12" font-family="Times New Roman" fill="black">Has</text><text x="200.495" y="111.0" text-anchor="middle" dominant-baseline="central" font-size="12" font-family="Times New Roman" fill="black">Student</text><circle cx="251.6975" cy="307.47" r="3.0" fill="black" stroke="none" /><circle cx="120.6" cy="144.026" r="3.0" fill="black" stroke="none" /><circle cx="212.105" cy="144.026" r="3.0" fill="black" stroke="none" /><text x="10" y="379" font-size="12" font-family="monospace" fill="black">EGIF: ~[ *x (Professor x) ~[ *y *z (Course y) (Has x z) (Person x) (Student z) (Teaches x y) ] ]</text></svg>