<?xml version="1.0" encoding="UTF-8" standalone="no"?>
<!DOCTYPE svg PUBLIC "-//W3C//DTD SVG 1.1//EN"
 "http://www.w3.org/Graphics/SVG/1.1/DTD/svg11.dtd">
<!-- Generated by graphviz version 13.1.2 (0)
 -->
<!-- Title: EG Pages: 1 -->
<svg width="154pt" height="148pt"
 viewBox="0.00 0.00 154.00 148.00" xmlns="http://www.w3.org/2000/svg" xmlns:xlink="http://www.w3.org/1999/xlink">
<g id="graph0" class="graph" transform="scale(1 1) rotate(0) translate(4 144)">
<title>EG</title>
<polygon fill="white" stroke="none" points="-4,4 -4,-144 149.76,-144 149.76,4 -4,4"/>
<text xml:space="preserve" text-anchor="middle" x="72.88" y="-124.6" font-family="Times,serif" font-size="12.00">EGIF: *x *y (Loves x y)</text>
<!-- pred_e_1347eb43 -->
<g id="node1" class="node">
<title>pred_e_1347eb43</title>
<polygon fill="lightgreen" stroke="black" points="99.66,-117.75 45.66,-117.75 45.66,-81.75 99.66,-81.75 99.66,-117.75"/>
<text xml:space="preserve" text-anchor="middle" x="72.66" y="-95.88" font-family="Times,serif" font-size="10.00">Loves</text>
</g>
<!-- Vertex(id=&#39;v_45ecaf24&#39;, label=None, is_generic=True) -->
<g id="node2" class="node">
<title>Vertex(id=&#39;v_45ecaf24&#39;, label=None, is_generic=True)</title>
<ellipse fill="lightblue" stroke="black" cx="31.66" cy="-18" rx="31.66" ry="18"/>
<text xml:space="preserve" text-anchor="middle" x="31.66" y="-14.12" font-family="Times,serif" font-size="10.00">45ecaf24</text>
</g>
<!-- pred_e_1347eb43&#45;&gt;Vertex(id=&#39;v_45ecaf24&#39;, label=None, is_generic=True) -->
<g id="edge2" class="edge">
<title>pred_e_1347eb43&#45;&gt;Vertex(id=&#39;v_45ecaf24&#39;, label=None, is_generic=True)</title>
<path fill="none" stroke="darkblue" d="M63.76,-81.45C58.42,-71.06 51.52,-57.64 45.48,-45.9"/>
<polygon fill="darkblue" stroke="darkblue" points="48.63,-44.36 40.95,-37.07 42.41,-47.56 48.63,-44.36"/>
<text xml:space="preserve" text-anchor="middle" x="56.49" y="-56.15" font-family="Times,serif" font-size="8.00">2</text>
</g>
<!-- Vertex(id=&#39;v_c7a72f29&#39;, label=None, is_generic=True) -->
<g id="node3" class="node">
<title>Vertex(id=&#39;v_c7a72f29&#39;, label=None, is_generic=True)</title>
<ellipse fill="lightblue" stroke="black" cx="113.66" cy="-18" rx="32.1" ry="18"/>
<text xml:space="preserve" text-anchor="middle" x="113.66" y="-14.12" font-family="Times,serif" font-size="10.00">c7a72f29</text>
</g>
<!-- pred_e_1347eb43&#45;&gt;Vertex(id=&#39;v_c7a72f29&#39;, label=None, is_generic=True) -->
<g id="edge1" class="edge">
<title>pred_e_1347eb43&#45;&gt;Vertex(id=&#39;v_c7a72f29&#39;, label=None, is_generic=True)</title>
<path fill="none" stroke="darkblue" d="M81.55,-81.45C86.89,-71.06 93.79,-57.64 99.83,-45.9"/>
<polygon fill="darkblue" stroke="darkblue" points="102.91,-47.56 104.37,-37.07 96.68,-44.36 102.91,-47.56"/>
<text xml:space="preserve" text-anchor="middle" x="97.49" y="-56.15" font-family="Times,serif" font-size="8.00">1</text>
</g>
</g>
</svg>
