<?xml version="1.0" encoding="UTF-8" standalone="no"?>
<!DOCTYPE svg PUBLIC "-//W3C//DTD SVG 1.1//EN"
 "http://www.w3.org/Graphics/SVG/1.1/DTD/svg11.dtd">
<!-- Generated by graphviz version 13.1.2 (0)
 -->
<!-- Title: EG Pages: 1 -->
<svg width="196pt" height="199pt"
 viewBox="0.00 0.00 196.00 199.00" xmlns="http://www.w3.org/2000/svg" xmlns:xlink="http://www.w3.org/1999/xlink">
<g id="graph0" class="graph" transform="scale(1 1) rotate(0) translate(4 195.33)">
<title>EG</title>
<polygon fill="white" stroke="none" points="-4,4 -4,-195.33 191.68,-195.33 191.68,4 -4,4"/>
<text xml:space="preserve" text-anchor="middle" x="93.84" y="-175.93" font-family="Times,serif" font-size="12.00">EGIF: *x *y (Loves x y)</text>
<!-- pred_e_6752d1af -->
<g id="node1" class="node">
<title>pred_e_6752d1af</title>
<path fill="none" stroke="black" stroke-width="0.75" d="M109.66,-169.08C109.66,-169.08 79.66,-169.08 79.66,-169.08 73.66,-169.08 67.66,-163.08 67.66,-157.08 67.66,-157.08 67.66,-145.08 67.66,-145.08 67.66,-139.08 73.66,-133.08 79.66,-133.08 79.66,-133.08 109.66,-133.08 109.66,-133.08 115.66,-133.08 121.66,-139.08 121.66,-145.08 121.66,-145.08 121.66,-157.08 121.66,-157.08 121.66,-163.08 115.66,-169.08 109.66,-169.08"/>
<text xml:space="preserve" text-anchor="middle" x="94.66" y="-146.8" font-family="Times,serif" font-size="12.00">Loves</text>
</g>
<!-- Vertex(id=&#39;v_18623f6d&#39;, label=None, is_generic=True) -->
<g id="node2" class="node">
<title>Vertex(id=&#39;v_18623f6d&#39;, label=None, is_generic=True)</title>
<ellipse fill="black" stroke="black" cx="43.66" cy="-43.66" rx="43.66" ry="43.66"/>
<text xml:space="preserve" text-anchor="middle" x="43.66" y="-39.39" font-family="Times,serif" font-size="12.00" fill="white">18623f6d</text>
</g>
<!-- pred_e_6752d1af&#45;&gt;Vertex(id=&#39;v_18623f6d&#39;, label=None, is_generic=True) -->
<g id="edge2" class="edge">
<title>pred_e_6752d1af&#45;&gt;Vertex(id=&#39;v_18623f6d&#39;, label=None, is_generic=True)</title>
<path fill="none" stroke="black" d="M86.47,-133.14C81.26,-122.37 74.22,-107.82 67.36,-93.64"/>
<polygon fill="black" stroke="black" points="70.59,-92.28 63.08,-84.8 64.29,-95.33 70.59,-92.28"/>
<text xml:space="preserve" text-anchor="middle" x="78.59" y="-107.48" font-family="Times,serif" font-size="8.00">2</text>
</g>
<!-- Vertex(id=&#39;v_11e58cff&#39;, label=None, is_generic=True) -->
<g id="node3" class="node">
<title>Vertex(id=&#39;v_11e58cff&#39;, label=None, is_generic=True)</title>
<ellipse fill="black" stroke="black" cx="146.66" cy="-43.66" rx="41.01" ry="41.01"/>
<text xml:space="preserve" text-anchor="middle" x="146.66" y="-39.39" font-family="Times,serif" font-size="12.00" fill="white">11e58cff</text>
</g>
<!-- pred_e_6752d1af&#45;&gt;Vertex(id=&#39;v_11e58cff&#39;, label=None, is_generic=True) -->
<g id="edge1" class="edge">
<title>pred_e_6752d1af&#45;&gt;Vertex(id=&#39;v_11e58cff&#39;, label=None, is_generic=True)</title>
<path fill="none" stroke="black" d="M103.02,-133.14C108.66,-121.7 116.41,-105.99 123.81,-90.99"/>
<polygon fill="black" stroke="black" points="126.89,-92.65 128.18,-82.14 120.62,-89.55 126.89,-92.65"/>
<text xml:space="preserve" text-anchor="middle" x="117.88" y="-107.48" font-family="Times,serif" font-size="8.00">1</text>
</g>
</g>
</svg>
