<?xml version="1.0" encoding="UTF-8" standalone="no"?>
<!DOCTYPE svg PUBLIC "-//W3C//DTD SVG 1.1//EN"
 "http://www.w3.org/Graphics/SVG/1.1/DTD/svg11.dtd">
<!-- Generated by graphviz version 13.1.2 (0)
 -->
<!-- Title: EG Pages: 1 -->
<svg width="320pt" height="186pt"
 viewBox="0.00 0.00 320.00 186.00" xmlns="http://www.w3.org/2000/svg" xmlns:xlink="http://www.w3.org/1999/xlink">
<g id="graph0" class="graph" transform="scale(1 1) rotate(0) translate(4 182.25)">
<title>EG</title>
<polygon fill="white" stroke="none" points="-4,4 -4,-182.25 315.5,-182.25 315.5,4 -4,4"/>
<text xml:space="preserve" text-anchor="middle" x="155.75" y="-162.85" font-family="Times,serif" font-size="12.00">EGIF: *x *y (Human x) (Loves x y) ~[ (Mortal x) (Happy y) ]</text>
<g id="clust1" class="cluster">
<title>cluster_0_0</title>
<polygon fill="lightgray" stroke="black" stroke-width="2" points="148.75,-73.75 148.75,-148 290.75,-148 290.75,-73.75 148.75,-73.75"/>
<text xml:space="preserve" text-anchor="middle" x="219.75" y="-132.6" font-family="Times,serif" font-size="12.00">Cut</text>
</g>
<!-- pred_e_987f6577 -->
<g id="node1" class="node">
<title>pred_e_987f6577</title>
<polygon fill="lightgreen" stroke="black" points="138.75,-117.75 84.75,-117.75 84.75,-81.75 138.75,-81.75 138.75,-117.75"/>
<text xml:space="preserve" text-anchor="middle" x="111.75" y="-95.88" font-family="Times,serif" font-size="10.00">Loves</text>
</g>
<!-- Vertex(id=&#39;v_b043b825&#39;, label=None, is_generic=True) -->
<g id="node5" class="node">
<title>Vertex(id=&#39;v_b043b825&#39;, label=None, is_generic=True)</title>
<ellipse fill="lightblue" stroke="black" cx="111.75" cy="-18" rx="34.32" ry="18"/>
<text xml:space="preserve" text-anchor="middle" x="111.75" y="-14.12" font-family="Times,serif" font-size="10.00">b043b825</text>
</g>
<!-- pred_e_987f6577&#45;&gt;Vertex(id=&#39;v_b043b825&#39;, label=None, is_generic=True) -->
<g id="edge1" class="edge">
<title>pred_e_987f6577&#45;&gt;Vertex(id=&#39;v_b043b825&#39;, label=None, is_generic=True)</title>
<path fill="none" stroke="darkblue" d="M111.75,-81.45C111.75,-71.52 111.75,-58.81 111.75,-47.45"/>
<polygon fill="darkblue" stroke="darkblue" points="115.25,-47.78 111.75,-37.78 108.25,-47.78 115.25,-47.78"/>
<text xml:space="preserve" text-anchor="middle" x="113.62" y="-56.15" font-family="Times,serif" font-size="8.00">1</text>
</g>
<!-- Vertex(id=&#39;v_a6408cfe&#39;, label=None, is_generic=True) -->
<g id="node6" class="node">
<title>Vertex(id=&#39;v_a6408cfe&#39;, label=None, is_generic=True)</title>
<ellipse fill="lightblue" stroke="black" cx="199.75" cy="-18" rx="31.66" ry="18"/>
<text xml:space="preserve" text-anchor="middle" x="199.75" y="-14.12" font-family="Times,serif" font-size="10.00">a6408cfe</text>
</g>
<!-- pred_e_987f6577&#45;&gt;Vertex(id=&#39;v_a6408cfe&#39;, label=None, is_generic=True) -->
<g id="edge2" class="edge">
<title>pred_e_987f6577&#45;&gt;Vertex(id=&#39;v_a6408cfe&#39;, label=None, is_generic=True)</title>
<path fill="none" stroke="darkblue" d="M125.89,-81.4C133.28,-72.77 142.7,-62.41 152,-54 157.84,-48.72 164.46,-43.46 170.87,-38.69"/>
<polygon fill="darkblue" stroke="darkblue" points="172.71,-41.68 178.77,-32.99 168.61,-36.01 172.71,-41.68"/>
<text xml:space="preserve" text-anchor="middle" x="153.88" y="-56.15" font-family="Times,serif" font-size="8.00">2</text>
</g>
<!-- pred_e_72138b69 -->
<g id="node2" class="node">
<title>pred_e_72138b69</title>
<polygon fill="lightgreen" stroke="black" points="66.75,-117.75 12.75,-117.75 12.75,-81.75 66.75,-81.75 66.75,-117.75"/>
<text xml:space="preserve" text-anchor="middle" x="39.75" y="-95.88" font-family="Times,serif" font-size="10.00">Human</text>
</g>
<!-- pred_e_72138b69&#45;&gt;Vertex(id=&#39;v_b043b825&#39;, label=None, is_generic=True) -->
<g id="edge3" class="edge">
<title>pred_e_72138b69&#45;&gt;Vertex(id=&#39;v_b043b825&#39;, label=None, is_generic=True)</title>
<path fill="none" stroke="darkblue" d="M55.37,-81.45C65.49,-70.24 78.81,-55.49 89.96,-43.13"/>
<polygon fill="darkblue" stroke="darkblue" points="92.5,-45.54 96.61,-35.77 87.31,-40.85 92.5,-45.54"/>
<text xml:space="preserve" text-anchor="middle" x="81.94" y="-56.15" font-family="Times,serif" font-size="8.00">1</text>
</g>
<!-- pred_e_57798f2b -->
<g id="node3" class="node">
<title>pred_e_57798f2b</title>
<polygon fill="lightgreen" stroke="black" points="282.75,-117.75 228.75,-117.75 228.75,-81.75 282.75,-81.75 282.75,-117.75"/>
<text xml:space="preserve" text-anchor="middle" x="255.75" y="-95.88" font-family="Times,serif" font-size="10.00">Happy</text>
</g>
<!-- pred_e_57798f2b&#45;&gt;Vertex(id=&#39;v_a6408cfe&#39;, label=None, is_generic=True) -->
<g id="edge4" class="edge">
<title>pred_e_57798f2b&#45;&gt;Vertex(id=&#39;v_a6408cfe&#39;, label=None, is_generic=True)</title>
<path fill="none" stroke="darkblue" d="M243.6,-81.45C235.98,-70.6 226.04,-56.44 217.54,-44.34"/>
<polygon fill="darkblue" stroke="darkblue" points="220.59,-42.59 211.98,-36.42 214.87,-46.62 220.59,-42.59"/>
<text xml:space="preserve" text-anchor="middle" x="232.98" y="-56.15" font-family="Times,serif" font-size="8.00">1</text>
</g>
<!-- pred_e_2ed4e084 -->
<g id="node4" class="node">
<title>pred_e_2ed4e084</title>
<polygon fill="lightgreen" stroke="black" points="210.75,-117.75 156.75,-117.75 156.75,-81.75 210.75,-81.75 210.75,-117.75"/>
<text xml:space="preserve" text-anchor="middle" x="183.75" y="-95.88" font-family="Times,serif" font-size="10.00">Mortal</text>
</g>
<!-- pred_e_2ed4e084&#45;&gt;Vertex(id=&#39;v_b043b825&#39;, label=None, is_generic=True) -->
<g id="edge5" class="edge">
<title>pred_e_2ed4e084&#45;&gt;Vertex(id=&#39;v_b043b825&#39;, label=None, is_generic=True)</title>
<path fill="none" stroke="darkblue" d="M173.71,-81.34C168.32,-72.69 161.26,-62.34 153.75,-54 149.54,-49.33 144.7,-44.73 139.83,-40.48"/>
<polygon fill="darkblue" stroke="darkblue" points="142.26,-37.95 132.34,-34.24 137.78,-43.33 142.26,-37.95"/>
<text xml:space="preserve" text-anchor="middle" x="163.11" y="-56.15" font-family="Times,serif" font-size="8.00">1</text>
</g>
</g>
</svg>
