<?xml version="1.0" encoding="UTF-8" standalone="no"?>
<!DOCTYPE svg PUBLIC "-//W3C//DTD SVG 1.1//EN"
 "http://www.w3.org/Graphics/SVG/1.1/DTD/svg11.dtd">
<!-- Generated by graphviz version 13.1.2 (0)
 -->
<!-- Title: EG Pages: 1 -->
<svg width="320pt" height="216pt"
 viewBox="0.00 0.00 320.00 216.00" xmlns="http://www.w3.org/2000/svg" xmlns:xlink="http://www.w3.org/1999/xlink">
<g id="graph0" class="graph" transform="scale(1 1) rotate(0) translate(4 212.39)">
<title>EG</title>
<polygon fill="white" stroke="none" points="-4,4 -4,-212.39 315.5,-212.39 315.5,4 -4,4"/>
<text xml:space="preserve" text-anchor="middle" x="155.75" y="-192.99" font-family="Times,serif" font-size="12.00">EGIF: *x *y (Human x) (Loves x y) ~[ (Mortal x) (Happy y) ]</text>
<g id="clust1" class="cluster">
<title>cluster_0_0</title>
<path fill="white" stroke="black" stroke-width="0.75" d="M96.75,-126.14C96.75,-126.14 214.75,-126.14 214.75,-126.14 220.75,-126.14 226.75,-132.14 226.75,-138.14 226.75,-138.14 226.75,-166.14 226.75,-166.14 226.75,-172.14 220.75,-178.14 214.75,-178.14 214.75,-178.14 96.75,-178.14 96.75,-178.14 90.75,-178.14 84.75,-172.14 84.75,-166.14 84.75,-166.14 84.75,-138.14 84.75,-138.14 84.75,-132.14 90.75,-126.14 96.75,-126.14"/>
</g>
<!-- pred_e_1eb3df68 -->
<g id="node1" class="node">
<title>pred_e_1eb3df68</title>
<path fill="none" stroke="black" stroke-width="0.75" d="M278.75,-170.14C278.75,-170.14 248.75,-170.14 248.75,-170.14 242.75,-170.14 236.75,-164.14 236.75,-158.14 236.75,-158.14 236.75,-146.14 236.75,-146.14 236.75,-140.14 242.75,-134.14 248.75,-134.14 248.75,-134.14 278.75,-134.14 278.75,-134.14 284.75,-134.14 290.75,-140.14 290.75,-146.14 290.75,-146.14 290.75,-158.14 290.75,-158.14 290.75,-164.14 284.75,-170.14 278.75,-170.14"/>
<text xml:space="preserve" text-anchor="middle" x="263.75" y="-147.86" font-family="Times,serif" font-size="12.00">Loves</text>
</g>
<!-- Vertex(id=&#39;v_e7da5d5f&#39;, label=None, is_generic=True) -->
<g id="node5" class="node">
<title>Vertex(id=&#39;v_e7da5d5f&#39;, label=None, is_generic=True)</title>
<ellipse fill="black" stroke="black" cx="234.75" cy="-44.19" rx="42.6" ry="42.6"/>
<text xml:space="preserve" text-anchor="middle" x="234.75" y="-39.92" font-family="Times,serif" font-size="12.00" fill="white">e7da5d5f</text>
</g>
<!-- pred_e_1eb3df68&#45;&gt;Vertex(id=&#39;v_e7da5d5f&#39;, label=None, is_generic=True) -->
<g id="edge2" class="edge">
<title>pred_e_1eb3df68&#45;&gt;Vertex(id=&#39;v_e7da5d5f&#39;, label=None, is_generic=True)</title>
<path fill="none" stroke="black" d="M259.09,-134.12C256.26,-123.78 252.48,-109.98 248.75,-96.34"/>
<polygon fill="black" stroke="black" points="252.2,-95.69 246.19,-86.97 245.45,-97.54 252.2,-95.69"/>
<text xml:space="preserve" text-anchor="middle" x="255.42" y="-108.54" font-family="Times,serif" font-size="8.00">2</text>
</g>
<!-- Vertex(id=&#39;v_c23bd7dc&#39;, label=None, is_generic=True) -->
<g id="node6" class="node">
<title>Vertex(id=&#39;v_c23bd7dc&#39;, label=None, is_generic=True)</title>
<ellipse fill="black" stroke="black" cx="119.75" cy="-44.19" rx="44.19" ry="44.19"/>
<text xml:space="preserve" text-anchor="middle" x="119.75" y="-39.92" font-family="Times,serif" font-size="12.00" fill="white">c23bd7dc</text>
</g>
<!-- pred_e_1eb3df68&#45;&gt;Vertex(id=&#39;v_c23bd7dc&#39;, label=None, is_generic=True) -->
<g id="edge1" class="edge">
<title>pred_e_1eb3df68&#45;&gt;Vertex(id=&#39;v_c23bd7dc&#39;, label=None, is_generic=True)</title>
<path fill="none" stroke="black" d="M242.74,-133.8C232.34,-125.36 219.52,-115.17 207.75,-106.39 199.63,-100.33 182.51,-88.36 165.51,-76.61"/>
<polygon fill="black" stroke="black" points="167.59,-73.79 157.38,-70.99 163.62,-79.56 167.59,-73.79"/>
<text xml:space="preserve" text-anchor="middle" x="222.12" y="-108.54" font-family="Times,serif" font-size="8.00">1</text>
</g>
<!-- pred_e_56686b91 -->
<g id="node2" class="node">
<title>pred_e_56686b91</title>
<path fill="none" stroke="black" stroke-width="0.75" d="M134.75,-170.14C134.75,-170.14 104.75,-170.14 104.75,-170.14 98.75,-170.14 92.75,-164.14 92.75,-158.14 92.75,-158.14 92.75,-146.14 92.75,-146.14 92.75,-140.14 98.75,-134.14 104.75,-134.14 104.75,-134.14 134.75,-134.14 134.75,-134.14 140.75,-134.14 146.75,-140.14 146.75,-146.14 146.75,-146.14 146.75,-158.14 146.75,-158.14 146.75,-164.14 140.75,-170.14 134.75,-170.14"/>
<text xml:space="preserve" text-anchor="middle" x="119.75" y="-147.86" font-family="Times,serif" font-size="12.00">Mortal</text>
</g>
<!-- pred_e_56686b91&#45;&gt;Vertex(id=&#39;v_c23bd7dc&#39;, label=None, is_generic=True) -->
<g id="edge3" class="edge">
<title>pred_e_56686b91&#45;&gt;Vertex(id=&#39;v_c23bd7dc&#39;, label=None, is_generic=True)</title>
<path fill="none" stroke="black" d="M119.75,-134.12C119.75,-124.71 119.75,-112.45 119.75,-100.04"/>
<polygon fill="black" stroke="black" points="123.25,-100.2 119.75,-90.2 116.25,-100.2 123.25,-100.2"/>
<text xml:space="preserve" text-anchor="middle" x="121.62" y="-108.54" font-family="Times,serif" font-size="8.00">1</text>
</g>
<!-- pred_e_863fd40c -->
<g id="node3" class="node">
<title>pred_e_863fd40c</title>
<path fill="none" stroke="black" stroke-width="0.75" d="M62.75,-170.14C62.75,-170.14 32.75,-170.14 32.75,-170.14 26.75,-170.14 20.75,-164.14 20.75,-158.14 20.75,-158.14 20.75,-146.14 20.75,-146.14 20.75,-140.14 26.75,-134.14 32.75,-134.14 32.75,-134.14 62.75,-134.14 62.75,-134.14 68.75,-134.14 74.75,-140.14 74.75,-146.14 74.75,-146.14 74.75,-158.14 74.75,-158.14 74.75,-164.14 68.75,-170.14 62.75,-170.14"/>
<text xml:space="preserve" text-anchor="middle" x="47.75" y="-147.86" font-family="Times,serif" font-size="12.00">Human</text>
</g>
<!-- pred_e_863fd40c&#45;&gt;Vertex(id=&#39;v_c23bd7dc&#39;, label=None, is_generic=True) -->
<g id="edge4" class="edge">
<title>pred_e_863fd40c&#45;&gt;Vertex(id=&#39;v_c23bd7dc&#39;, label=None, is_generic=True)</title>
<path fill="none" stroke="black" d="M59.32,-134.12C67.35,-122.3 78.46,-105.96 88.96,-90.51"/>
<polygon fill="black" stroke="black" points="91.81,-92.54 94.53,-82.3 86.02,-88.6 91.81,-92.54"/>
<text xml:space="preserve" text-anchor="middle" x="79.18" y="-108.54" font-family="Times,serif" font-size="8.00">1</text>
</g>
<!-- pred_e_166cf493 -->
<g id="node4" class="node">
<title>pred_e_166cf493</title>
<path fill="none" stroke="black" stroke-width="0.75" d="M206.75,-170.14C206.75,-170.14 176.75,-170.14 176.75,-170.14 170.75,-170.14 164.75,-164.14 164.75,-158.14 164.75,-158.14 164.75,-146.14 164.75,-146.14 164.75,-140.14 170.75,-134.14 176.75,-134.14 176.75,-134.14 206.75,-134.14 206.75,-134.14 212.75,-134.14 218.75,-140.14 218.75,-146.14 218.75,-146.14 218.75,-158.14 218.75,-158.14 218.75,-164.14 212.75,-170.14 206.75,-170.14"/>
<text xml:space="preserve" text-anchor="middle" x="191.75" y="-147.86" font-family="Times,serif" font-size="12.00">Happy</text>
</g>
<!-- pred_e_166cf493&#45;&gt;Vertex(id=&#39;v_e7da5d5f&#39;, label=None, is_generic=True) -->
<g id="edge5" class="edge">
<title>pred_e_166cf493&#45;&gt;Vertex(id=&#39;v_e7da5d5f&#39;, label=None, is_generic=True)</title>
<path fill="none" stroke="black" d="M195.62,-133.88C197.73,-125.46 200.59,-115.26 204,-106.39 205.77,-101.77 207.78,-97.03 209.9,-92.34"/>
<polygon fill="black" stroke="black" points="212.94,-94.11 214.04,-83.57 206.61,-91.13 212.94,-94.11"/>
<text xml:space="preserve" text-anchor="middle" x="205.88" y="-108.54" font-family="Times,serif" font-size="8.00">1</text>
</g>
</g>
</svg>
