<?xml version="1.0" encoding="UTF-8" standalone="no"?>
<!DOCTYPE svg PUBLIC "-//W3C//DTD SVG 1.1//EN"
 "http://www.w3.org/Graphics/SVG/1.1/DTD/svg11.dtd">
<!-- Generated by graphviz version 13.1.2 (0)
 -->
<!-- Title: EG Pages: 1 -->
<svg width="136pt" height="223pt"
 viewBox="0.00 0.00 136.00 223.00" xmlns="http://www.w3.org/2000/svg" xmlns:xlink="http://www.w3.org/1999/xlink">
<g id="graph0" class="graph" transform="scale(1 1) rotate(0) translate(4 218.5)">
<title>EG</title>
<polygon fill="white" stroke="none" points="-4,4 -4,-218.5 131.75,-218.5 131.75,4 -4,4"/>
<text xml:space="preserve" text-anchor="middle" x="63.88" y="-199.1" font-family="Times,serif" font-size="12.00">EGIF: *x ~[ ~[ (P x) ] ]</text>
<g id="clust1" class="cluster">
<title>cluster_0_0</title>
<polygon fill="lightgray" stroke="black" stroke-width="2" points="20.88,-71.75 20.88,-184.25 106.88,-184.25 106.88,-71.75 20.88,-71.75"/>
<text xml:space="preserve" text-anchor="middle" x="63.88" y="-168.85" font-family="Times,serif" font-size="12.00">Cut</text>
</g>
<g id="clust2" class="cluster">
<title>cluster_1_0</title>
<polygon fill="lightgray" stroke="black" stroke-width="2" points="28.88,-79.75 28.88,-154 98.88,-154 98.88,-79.75 28.88,-79.75"/>
<text xml:space="preserve" text-anchor="middle" x="63.88" y="-138.6" font-family="Times,serif" font-size="12.00">Cut</text>
</g>
<!-- pred_e_ea9335ab -->
<g id="node1" class="node">
<title>pred_e_ea9335ab</title>
<polygon fill="lightgreen" stroke="black" points="90.88,-123.75 36.88,-123.75 36.88,-87.75 90.88,-87.75 90.88,-123.75"/>
<text xml:space="preserve" text-anchor="middle" x="63.88" y="-101.88" font-family="Times,serif" font-size="10.00">P</text>
</g>
<!-- Vertex(id=&#39;v_116d2f66&#39;, label=None, is_generic=True) -->
<g id="node2" class="node">
<title>Vertex(id=&#39;v_116d2f66&#39;, label=None, is_generic=True)</title>
<ellipse fill="lightblue" stroke="black" cx="63.88" cy="-18" rx="32.1" ry="18"/>
<text xml:space="preserve" text-anchor="middle" x="63.88" y="-14.12" font-family="Times,serif" font-size="10.00">116d2f66</text>
</g>
<!-- pred_e_ea9335ab&#45;&gt;Vertex(id=&#39;v_116d2f66&#39;, label=None, is_generic=True) -->
<g id="edge1" class="edge">
<title>pred_e_ea9335ab&#45;&gt;Vertex(id=&#39;v_116d2f66&#39;, label=None, is_generic=True)</title>
<path fill="none" stroke="darkblue" d="M63.88,-87.4C63.88,-76.01 63.88,-60.84 63.88,-47.68"/>
<polygon fill="darkblue" stroke="darkblue" points="67.38,-47.84 63.88,-37.84 60.38,-47.84 67.38,-47.84"/>
<text xml:space="preserve" text-anchor="middle" x="65.75" y="-56.15" font-family="Times,serif" font-size="8.00">1</text>
</g>
</g>
</svg>
