<?xml version="1.0" encoding="UTF-8" standalone="no"?>
<!DOCTYPE svg PUBLIC "-//W3C//DTD SVG 1.1//EN"
 "http://www.w3.org/Graphics/SVG/1.1/DTD/svg11.dtd">
<!-- Generated by graphviz version 13.1.2 (0)
 -->
<!-- Title: EG Pages: 1 -->
<svg width="136pt" height="230pt"
 viewBox="0.00 0.00 136.00 230.00" xmlns="http://www.w3.org/2000/svg" xmlns:xlink="http://www.w3.org/1999/xlink">
<g id="graph0" class="graph" transform="scale(1 1) rotate(0) translate(4 226.39)">
<title>EG</title>
<polygon fill="white" stroke="none" points="-4,4 -4,-226.39 131.75,-226.39 131.75,4 -4,4"/>
<text xml:space="preserve" text-anchor="middle" x="63.88" y="-206.99" font-family="Times,serif" font-size="12.00">EGIF: *x ~[ ~[ (P x) ] ]</text>
<g id="clust1" class="cluster">
<title>cluster_0_0</title>
<path fill="white" stroke="black" stroke-width="0.75" d="M32.88,-124.14C32.88,-124.14 94.88,-124.14 94.88,-124.14 100.88,-124.14 106.88,-130.14 106.88,-136.14 106.88,-136.14 106.88,-180.14 106.88,-180.14 106.88,-186.14 100.88,-192.14 94.88,-192.14 94.88,-192.14 32.88,-192.14 32.88,-192.14 26.88,-192.14 20.88,-186.14 20.88,-180.14 20.88,-180.14 20.88,-136.14 20.88,-136.14 20.88,-130.14 26.88,-124.14 32.88,-124.14"/>
</g>
<g id="clust2" class="cluster">
<title>cluster_1_0</title>
<path fill="white" stroke="black" stroke-width="0.75" d="M40.88,-132.14C40.88,-132.14 86.88,-132.14 86.88,-132.14 92.88,-132.14 98.88,-138.14 98.88,-144.14 98.88,-144.14 98.88,-172.14 98.88,-172.14 98.88,-178.14 92.88,-184.14 86.88,-184.14 86.88,-184.14 40.88,-184.14 40.88,-184.14 34.88,-184.14 28.88,-178.14 28.88,-172.14 28.88,-172.14 28.88,-144.14 28.88,-144.14 28.88,-138.14 34.88,-132.14 40.88,-132.14"/>
</g>
<!-- pred_e_383fa04c -->
<g id="node1" class="node">
<title>pred_e_383fa04c</title>
<path fill="none" stroke="black" stroke-width="0.75" d="M78.88,-176.14C78.88,-176.14 48.88,-176.14 48.88,-176.14 42.88,-176.14 36.88,-170.14 36.88,-164.14 36.88,-164.14 36.88,-152.14 36.88,-152.14 36.88,-146.14 42.88,-140.14 48.88,-140.14 48.88,-140.14 78.88,-140.14 78.88,-140.14 84.88,-140.14 90.88,-146.14 90.88,-152.14 90.88,-152.14 90.88,-164.14 90.88,-164.14 90.88,-170.14 84.88,-176.14 78.88,-176.14"/>
<text xml:space="preserve" text-anchor="middle" x="63.88" y="-153.86" font-family="Times,serif" font-size="12.00">P</text>
</g>
<!-- Vertex(id=&#39;v_a2c95023&#39;, label=None, is_generic=True) -->
<g id="node2" class="node">
<title>Vertex(id=&#39;v_a2c95023&#39;, label=None, is_generic=True)</title>
<ellipse fill="black" stroke="black" cx="63.88" cy="-44.19" rx="44.19" ry="44.19"/>
<text xml:space="preserve" text-anchor="middle" x="63.88" y="-39.92" font-family="Times,serif" font-size="12.00" fill="white">a2c95023</text>
</g>
<!-- pred_e_383fa04c&#45;&gt;Vertex(id=&#39;v_a2c95023&#39;, label=None, is_generic=True) -->
<g id="edge1" class="edge">
<title>pred_e_383fa04c&#45;&gt;Vertex(id=&#39;v_a2c95023&#39;, label=None, is_generic=True)</title>
<path fill="none" stroke="black" d="M63.88,-140.14C63.88,-129.22 63.88,-114.37 63.88,-99.67"/>
<polygon fill="black" stroke="black" points="67.38,-100.03 63.88,-90.03 60.38,-100.03 67.38,-100.03"/>
<text xml:space="preserve" text-anchor="middle" x="65.75" y="-108.54" font-family="Times,serif" font-size="8.00">1</text>
</g>
</g>
</svg>
