<?xml version="1.0" encoding="UTF-8" standalone="no"?>
<!DOCTYPE svg PUBLIC "-//W3C//DTD SVG 1.1//EN"
 "http://www.w3.org/Graphics/SVG/1.1/DTD/svg11.dtd">
<!-- Generated by graphviz version 13.1.2 (0)
 -->
<!-- Title: EG Pages: 1 -->
<svg width="195pt" height="219pt"
 viewBox="0.00 0.00 195.00 219.00" xmlns="http://www.w3.org/2000/svg" xmlns:xlink="http://www.w3.org/1999/xlink">
<g id="graph0" class="graph" transform="scale(1 1) rotate(0) translate(4 214.51)">
<title>EG</title>
<polygon fill="white" stroke="none" points="-4,4 -4,-214.51 191,-214.51 191,4 -4,4"/>
<text xml:space="preserve" text-anchor="middle" x="93.5" y="-195.11" font-family="Times,serif" font-size="12.00">EGIF: *x (Human x) ~[ (Mortal x) ]</text>
<g id="clust1" class="cluster">
<title>cluster_0_0</title>
<path fill="white" stroke="black" stroke-width="0.75" d="M42.5,-128.26C42.5,-128.26 88.5,-128.26 88.5,-128.26 94.5,-128.26 100.5,-134.26 100.5,-140.26 100.5,-140.26 100.5,-168.26 100.5,-168.26 100.5,-174.26 94.5,-180.26 88.5,-180.26 88.5,-180.26 42.5,-180.26 42.5,-180.26 36.5,-180.26 30.5,-174.26 30.5,-168.26 30.5,-168.26 30.5,-140.26 30.5,-140.26 30.5,-134.26 36.5,-128.26 42.5,-128.26"/>
</g>
<!-- pred_e_286ddfdb -->
<g id="node1" class="node">
<title>pred_e_286ddfdb</title>
<path fill="none" stroke="black" stroke-width="0.75" d="M80.5,-172.26C80.5,-172.26 50.5,-172.26 50.5,-172.26 44.5,-172.26 38.5,-166.26 38.5,-160.26 38.5,-160.26 38.5,-148.26 38.5,-148.26 38.5,-142.26 44.5,-136.26 50.5,-136.26 50.5,-136.26 80.5,-136.26 80.5,-136.26 86.5,-136.26 92.5,-142.26 92.5,-148.26 92.5,-148.26 92.5,-160.26 92.5,-160.26 92.5,-166.26 86.5,-172.26 80.5,-172.26"/>
<text xml:space="preserve" text-anchor="middle" x="65.5" y="-149.98" font-family="Times,serif" font-size="12.00">Mortal</text>
</g>
<!-- Vertex(id=&#39;v_d7479172&#39;, label=None, is_generic=True) -->
<g id="node3" class="node">
<title>Vertex(id=&#39;v_d7479172&#39;, label=None, is_generic=True)</title>
<ellipse fill="black" stroke="black" cx="101.5" cy="-45.25" rx="45.25" ry="45.25"/>
<text xml:space="preserve" text-anchor="middle" x="101.5" y="-40.98" font-family="Times,serif" font-size="12.00" fill="white">d7479172</text>
</g>
<!-- pred_e_286ddfdb&#45;&gt;Vertex(id=&#39;v_d7479172&#39;, label=None, is_generic=True) -->
<g id="edge1" class="edge">
<title>pred_e_286ddfdb&#45;&gt;Vertex(id=&#39;v_d7479172&#39;, label=None, is_generic=True)</title>
<path fill="none" stroke="black" d="M71.28,-136.07C74.7,-125.91 79.24,-112.43 83.75,-99.02"/>
<polygon fill="black" stroke="black" points="86.98,-100.38 86.86,-89.78 80.35,-98.14 86.98,-100.38"/>
<text xml:space="preserve" text-anchor="middle" x="82.15" y="-110.66" font-family="Times,serif" font-size="8.00">1</text>
</g>
<!-- pred_e_116c1679 -->
<g id="node2" class="node">
<title>pred_e_116c1679</title>
<path fill="none" stroke="black" stroke-width="0.75" d="M152.5,-172.26C152.5,-172.26 122.5,-172.26 122.5,-172.26 116.5,-172.26 110.5,-166.26 110.5,-160.26 110.5,-160.26 110.5,-148.26 110.5,-148.26 110.5,-142.26 116.5,-136.26 122.5,-136.26 122.5,-136.26 152.5,-136.26 152.5,-136.26 158.5,-136.26 164.5,-142.26 164.5,-148.26 164.5,-148.26 164.5,-160.26 164.5,-160.26 164.5,-166.26 158.5,-172.26 152.5,-172.26"/>
<text xml:space="preserve" text-anchor="middle" x="137.5" y="-149.98" font-family="Times,serif" font-size="12.00">Human</text>
</g>
<!-- pred_e_116c1679&#45;&gt;Vertex(id=&#39;v_d7479172&#39;, label=None, is_generic=True) -->
<g id="edge2" class="edge">
<title>pred_e_116c1679&#45;&gt;Vertex(id=&#39;v_d7479172&#39;, label=None, is_generic=True)</title>
<path fill="none" stroke="black" d="M131.72,-136.07C128.3,-125.91 123.76,-112.43 119.25,-99.02"/>
<polygon fill="black" stroke="black" points="122.65,-98.14 116.14,-89.78 116.02,-100.38 122.65,-98.14"/>
<text xml:space="preserve" text-anchor="middle" x="126.7" y="-110.66" font-family="Times,serif" font-size="8.00">1</text>
</g>
</g>
</svg>
