<?xml version="1.0" encoding="UTF-8" standalone="no"?>
<!DOCTYPE svg PUBLIC "-//W3C//DTD SVG 1.1//EN"
 "http://www.w3.org/Graphics/SVG/1.1/DTD/svg11.dtd">
<!-- Generated by graphviz version 13.1.2 (0)
 -->
<!-- Title: EG Pages: 1 -->
<svg width="195pt" height="186pt"
 viewBox="0.00 0.00 195.00 186.00" xmlns="http://www.w3.org/2000/svg" xmlns:xlink="http://www.w3.org/1999/xlink">
<g id="graph0" class="graph" transform="scale(1 1) rotate(0) translate(4 182.25)">
<title>EG</title>
<polygon fill="white" stroke="none" points="-4,4 -4,-182.25 191,-182.25 191,4 -4,4"/>
<text xml:space="preserve" text-anchor="middle" x="93.5" y="-162.85" font-family="Times,serif" font-size="12.00">EGIF: *x (Human x) ~[ (Mortal x) ]</text>
<g id="clust1" class="cluster">
<title>cluster_0_0</title>
<polygon fill="lightgray" stroke="black" stroke-width="2" points="86.5,-73.75 86.5,-148 156.5,-148 156.5,-73.75 86.5,-73.75"/>
<text xml:space="preserve" text-anchor="middle" x="121.5" y="-132.6" font-family="Times,serif" font-size="12.00">Cut</text>
</g>
<!-- pred_e_3f1ea4dc -->
<g id="node1" class="node">
<title>pred_e_3f1ea4dc</title>
<polygon fill="lightgreen" stroke="black" points="76.5,-117.75 22.5,-117.75 22.5,-81.75 76.5,-81.75 76.5,-117.75"/>
<text xml:space="preserve" text-anchor="middle" x="49.5" y="-95.88" font-family="Times,serif" font-size="10.00">Human</text>
</g>
<!-- Vertex(id=&#39;v_42533a1a&#39;, label=None, is_generic=True) -->
<g id="node3" class="node">
<title>Vertex(id=&#39;v_42533a1a&#39;, label=None, is_generic=True)</title>
<ellipse fill="lightblue" stroke="black" cx="62.5" cy="-18" rx="33.43" ry="18"/>
<text xml:space="preserve" text-anchor="middle" x="62.5" y="-14.12" font-family="Times,serif" font-size="10.00">42533a1a</text>
</g>
<!-- pred_e_3f1ea4dc&#45;&gt;Vertex(id=&#39;v_42533a1a&#39;, label=None, is_generic=True) -->
<g id="edge1" class="edge">
<title>pred_e_3f1ea4dc&#45;&gt;Vertex(id=&#39;v_42533a1a&#39;, label=None, is_generic=True)</title>
<path fill="none" stroke="darkblue" d="M52.32,-81.45C53.94,-71.52 56.01,-58.81 57.86,-47.45"/>
<polygon fill="darkblue" stroke="darkblue" points="61.29,-48.2 59.44,-37.76 54.38,-47.07 61.29,-48.2"/>
<text xml:space="preserve" text-anchor="middle" x="58.65" y="-56.15" font-family="Times,serif" font-size="8.00">1</text>
</g>
<!-- pred_e_1de19ab6 -->
<g id="node2" class="node">
<title>pred_e_1de19ab6</title>
<polygon fill="lightgreen" stroke="black" points="148.5,-117.75 94.5,-117.75 94.5,-81.75 148.5,-81.75 148.5,-117.75"/>
<text xml:space="preserve" text-anchor="middle" x="121.5" y="-95.88" font-family="Times,serif" font-size="10.00">Mortal</text>
</g>
<!-- pred_e_1de19ab6&#45;&gt;Vertex(id=&#39;v_42533a1a&#39;, label=None, is_generic=True) -->
<g id="edge2" class="edge">
<title>pred_e_1de19ab6&#45;&gt;Vertex(id=&#39;v_42533a1a&#39;, label=None, is_generic=True)</title>
<path fill="none" stroke="darkblue" d="M108.7,-81.45C100.68,-70.6 90.2,-56.44 81.25,-44.34"/>
<polygon fill="darkblue" stroke="darkblue" points="84.13,-42.36 75.37,-36.4 78.51,-46.52 84.13,-42.36"/>
<text xml:space="preserve" text-anchor="middle" x="97.41" y="-56.15" font-family="Times,serif" font-size="8.00">1</text>
</g>
</g>
</svg>
