<?xml version="1.0" encoding="UTF-8" standalone="no"?>
<!DOCTYPE svg PUBLIC "-//W3C//DTD SVG 1.1//EN"
 "http://www.w3.org/Graphics/SVG/1.1/DTD/svg11.dtd">
<!-- Generated by graphviz version 13.1.2 (0)
 -->
<!-- Title: EG Pages: 1 -->
<svg width="116pt" height="217pt"
 viewBox="0.00 0.00 116.00 217.00" xmlns="http://www.w3.org/2000/svg" xmlns:xlink="http://www.w3.org/1999/xlink">
<g id="graph0" class="graph" transform="scale(1 1) rotate(0) translate(4 213.45)">
<title>EG</title>
<polygon fill="white" stroke="none" points="-4,4 -4,-213.45 111.5,-213.45 111.5,4 -4,4"/>
<text xml:space="preserve" text-anchor="middle" x="53.75" y="-194.05" font-family="Times,serif" font-size="12.00">EGIF: *x ~[ (P x) ]</text>
<g id="clust1" class="cluster">
<title>cluster_0_0</title>
<path fill="white" stroke="black" stroke-width="0.75" d="M30.75,-127.2C30.75,-127.2 76.75,-127.2 76.75,-127.2 82.75,-127.2 88.75,-133.2 88.75,-139.2 88.75,-139.2 88.75,-167.2 88.75,-167.2 88.75,-173.2 82.75,-179.2 76.75,-179.2 76.75,-179.2 30.75,-179.2 30.75,-179.2 24.75,-179.2 18.75,-173.2 18.75,-167.2 18.75,-167.2 18.75,-139.2 18.75,-139.2 18.75,-133.2 24.75,-127.2 30.75,-127.2"/>
</g>
<!-- pred_e_235da39d -->
<g id="node1" class="node">
<title>pred_e_235da39d</title>
<path fill="none" stroke="black" stroke-width="0.75" d="M68.75,-171.2C68.75,-171.2 38.75,-171.2 38.75,-171.2 32.75,-171.2 26.75,-165.2 26.75,-159.2 26.75,-159.2 26.75,-147.2 26.75,-147.2 26.75,-141.2 32.75,-135.2 38.75,-135.2 38.75,-135.2 68.75,-135.2 68.75,-135.2 74.75,-135.2 80.75,-141.2 80.75,-147.2 80.75,-147.2 80.75,-159.2 80.75,-159.2 80.75,-165.2 74.75,-171.2 68.75,-171.2"/>
<text xml:space="preserve" text-anchor="middle" x="53.75" y="-148.92" font-family="Times,serif" font-size="12.00">P</text>
</g>
<!-- Vertex(id=&#39;v_a03246d3&#39;, label=None, is_generic=True) -->
<g id="node2" class="node">
<title>Vertex(id=&#39;v_a03246d3&#39;, label=None, is_generic=True)</title>
<ellipse fill="black" stroke="black" cx="53.75" cy="-44.72" rx="44.72" ry="44.72"/>
<text xml:space="preserve" text-anchor="middle" x="53.75" y="-40.45" font-family="Times,serif" font-size="12.00" fill="white">a03246d3</text>
</g>
<!-- pred_e_235da39d&#45;&gt;Vertex(id=&#39;v_a03246d3&#39;, label=None, is_generic=True) -->
<g id="edge1" class="edge">
<title>pred_e_235da39d&#45;&gt;Vertex(id=&#39;v_a03246d3&#39;, label=None, is_generic=True)</title>
<path fill="none" stroke="black" d="M53.75,-135.09C53.75,-125.73 53.75,-113.55 53.75,-101.2"/>
<polygon fill="black" stroke="black" points="57.25,-101.41 53.75,-91.41 50.25,-101.41 57.25,-101.41"/>
<text xml:space="preserve" text-anchor="middle" x="55.62" y="-109.6" font-family="Times,serif" font-size="8.00">1</text>
</g>
</g>
</svg>
