<?xml version="1.0" encoding="UTF-8" standalone="no"?>
<!DOCTYPE svg PUBLIC "-//W3C//DTD SVG 1.1//EN"
 "http://www.w3.org/Graphics/SVG/1.1/DTD/svg11.dtd">
<!-- Generated by graphviz version 13.1.2 (0)
 -->
<!-- Title: EG Pages: 1 -->
<svg width="116pt" height="186pt"
 viewBox="0.00 0.00 116.00 186.00" xmlns="http://www.w3.org/2000/svg" xmlns:xlink="http://www.w3.org/1999/xlink">
<g id="graph0" class="graph" transform="scale(1 1) rotate(0) translate(4 182.25)">
<title>EG</title>
<polygon fill="white" stroke="none" points="-4,4 -4,-182.25 111.5,-182.25 111.5,4 -4,4"/>
<text xml:space="preserve" text-anchor="middle" x="53.75" y="-162.85" font-family="Times,serif" font-size="12.00">EGIF: *x ~[ (P x) ]</text>
<g id="clust1" class="cluster">
<title>cluster_0_0</title>
<polygon fill="lightgray" stroke="black" stroke-width="2" points="18.75,-73.75 18.75,-148 88.75,-148 88.75,-73.75 18.75,-73.75"/>
<text xml:space="preserve" text-anchor="middle" x="53.75" y="-132.6" font-family="Times,serif" font-size="12.00">Cut</text>
</g>
<!-- pred_e_955c842e -->
<g id="node1" class="node">
<title>pred_e_955c842e</title>
<polygon fill="lightgreen" stroke="black" points="80.75,-117.75 26.75,-117.75 26.75,-81.75 80.75,-81.75 80.75,-117.75"/>
<text xml:space="preserve" text-anchor="middle" x="53.75" y="-95.88" font-family="Times,serif" font-size="10.00">P</text>
</g>
<!-- Vertex(id=&#39;v_02dd5d20&#39;, label=None, is_generic=True) -->
<g id="node2" class="node">
<title>Vertex(id=&#39;v_02dd5d20&#39;, label=None, is_generic=True)</title>
<ellipse fill="lightblue" stroke="black" cx="53.75" cy="-18" rx="34.32" ry="18"/>
<text xml:space="preserve" text-anchor="middle" x="53.75" y="-14.12" font-family="Times,serif" font-size="10.00">02dd5d20</text>
</g>
<!-- pred_e_955c842e&#45;&gt;Vertex(id=&#39;v_02dd5d20&#39;, label=None, is_generic=True) -->
<g id="edge1" class="edge">
<title>pred_e_955c842e&#45;&gt;Vertex(id=&#39;v_02dd5d20&#39;, label=None, is_generic=True)</title>
<path fill="none" stroke="darkblue" d="M53.75,-81.45C53.75,-71.52 53.75,-58.81 53.75,-47.45"/>
<polygon fill="darkblue" stroke="darkblue" points="57.25,-47.78 53.75,-37.78 50.25,-47.78 57.25,-47.78"/>
<text xml:space="preserve" text-anchor="middle" x="55.62" y="-56.15" font-family="Times,serif" font-size="8.00">1</text>
</g>
</g>
</svg>
