<?xml version="1.0" encoding="UTF-8" standalone="no"?>
<!DOCTYPE svg PUBLIC "-//W3C//DTD SVG 1.1//EN"
 "http://www.w3.org/Graphics/SVG/1.1/DTD/svg11.dtd">
<!-- Generated by graphviz version 13.1.2 (0)
 -->
<!-- Title: EG Pages: 1 -->
<svg width="124pt" height="197pt"
 viewBox="0.00 0.00 124.00 197.00" xmlns="http://www.w3.org/2000/svg" xmlns:xlink="http://www.w3.org/1999/xlink">
<g id="graph0" class="graph" transform="scale(1 1) rotate(0) translate(4 193.21)">
<title>EG</title>
<polygon fill="white" stroke="none" points="-4,4 -4,-193.21 119.75,-193.21 119.75,4 -4,4"/>
<text xml:space="preserve" text-anchor="middle" x="57.88" y="-173.81" font-family="Times,serif" font-size="12.00">EGIF: *x (Human x)</text>
<!-- pred_e_985b3131 -->
<g id="node1" class="node">
<title>pred_e_985b3131</title>
<path fill="none" stroke="black" stroke-width="0.75" d="M72.88,-166.96C72.88,-166.96 42.88,-166.96 42.88,-166.96 36.88,-166.96 30.88,-160.96 30.88,-154.96 30.88,-154.96 30.88,-142.96 30.88,-142.96 30.88,-136.96 36.88,-130.96 42.88,-130.96 42.88,-130.96 72.88,-130.96 72.88,-130.96 78.88,-130.96 84.88,-136.96 84.88,-142.96 84.88,-142.96 84.88,-154.96 84.88,-154.96 84.88,-160.96 78.88,-166.96 72.88,-166.96"/>
<text xml:space="preserve" text-anchor="middle" x="57.88" y="-144.68" font-family="Times,serif" font-size="12.00">Human</text>
</g>
<!-- Vertex(id=&#39;v_6c0c7f93&#39;, label=None, is_generic=True) -->
<g id="node2" class="node">
<title>Vertex(id=&#39;v_6c0c7f93&#39;, label=None, is_generic=True)</title>
<ellipse fill="black" stroke="black" cx="57.88" cy="-42.6" rx="42.6" ry="42.6"/>
<text xml:space="preserve" text-anchor="middle" x="57.88" y="-38.33" font-family="Times,serif" font-size="12.00" fill="white">6c0c7f93</text>
</g>
<!-- pred_e_985b3131&#45;&gt;Vertex(id=&#39;v_6c0c7f93&#39;, label=None, is_generic=True) -->
<g id="edge1" class="edge">
<title>pred_e_985b3131&#45;&gt;Vertex(id=&#39;v_6c0c7f93&#39;, label=None, is_generic=True)</title>
<path fill="none" stroke="black" d="M57.88,-130.72C57.88,-121.33 57.88,-109.13 57.88,-96.86"/>
<polygon fill="black" stroke="black" points="61.38,-97.16 57.88,-87.16 54.38,-97.16 61.38,-97.16"/>
<text xml:space="preserve" text-anchor="middle" x="59.75" y="-105.36" font-family="Times,serif" font-size="8.00">1</text>
</g>
</g>
</svg>
