<?xml version="1.0" encoding="UTF-8" standalone="no"?>
<!DOCTYPE svg PUBLIC "-//W3C//DTD SVG 1.1//EN"
 "http://www.w3.org/Graphics/SVG/1.1/DTD/svg11.dtd">
<!-- Generated by graphviz version 13.1.2 (0)
 -->
<!-- Title: EG Pages: 1 -->
<svg width="155pt" height="213pt"
 viewBox="0.00 0.00 155.00 213.00" xmlns="http://www.w3.org/2000/svg" xmlns:xlink="http://www.w3.org/1999/xlink">
<g id="graph0" class="graph" transform="scale(1 1) rotate(0) translate(4 209.21)">
<title>EG</title>
<polygon fill="white" stroke="none" points="-4,4 -4,-209.21 150.5,-209.21 150.5,4 -4,4"/>
<text xml:space="preserve" text-anchor="middle" x="73.25" y="-189.81" font-family="Times,serif" font-size="12.00">EGIF: [*x] ~[ (phoenix x) ]</text>
<g id="clust1" class="cluster">
<title>cluster_0_0</title>
<path fill="white" stroke="black" stroke-width="0.75" d="M50.25,-122.96C50.25,-122.96 96.25,-122.96 96.25,-122.96 102.25,-122.96 108.25,-128.96 108.25,-134.96 108.25,-134.96 108.25,-162.96 108.25,-162.96 108.25,-168.96 102.25,-174.96 96.25,-174.96 96.25,-174.96 50.25,-174.96 50.25,-174.96 44.25,-174.96 38.25,-168.96 38.25,-162.96 38.25,-162.96 38.25,-134.96 38.25,-134.96 38.25,-128.96 44.25,-122.96 50.25,-122.96"/>
</g>
<!-- pred_e_4ea97400 -->
<g id="node1" class="node">
<title>pred_e_4ea97400</title>
<path fill="none" stroke="black" stroke-width="0.75" d="M88.38,-166.96C88.38,-166.96 58.12,-166.96 58.12,-166.96 52.12,-166.96 46.12,-160.96 46.12,-154.96 46.12,-154.96 46.12,-142.96 46.12,-142.96 46.12,-136.96 52.12,-130.96 58.12,-130.96 58.12,-130.96 88.38,-130.96 88.38,-130.96 94.38,-130.96 100.38,-136.96 100.38,-142.96 100.38,-142.96 100.38,-154.96 100.38,-154.96 100.38,-160.96 94.38,-166.96 88.38,-166.96"/>
<text xml:space="preserve" text-anchor="middle" x="73.25" y="-144.68" font-family="Times,serif" font-size="12.00">phoenix</text>
</g>
<!-- Vertex(id=&#39;v_2c7f90e7&#39;, label=None, is_generic=True) -->
<g id="node2" class="node">
<title>Vertex(id=&#39;v_2c7f90e7&#39;, label=None, is_generic=True)</title>
<ellipse fill="black" stroke="black" cx="73.25" cy="-42.6" rx="42.6" ry="42.6"/>
<text xml:space="preserve" text-anchor="middle" x="73.25" y="-38.33" font-family="Times,serif" font-size="12.00" fill="white">2c7f90e7</text>
</g>
<!-- pred_e_4ea97400&#45;&gt;Vertex(id=&#39;v_2c7f90e7&#39;, label=None, is_generic=True) -->
<g id="edge1" class="edge">
<title>pred_e_4ea97400&#45;&gt;Vertex(id=&#39;v_2c7f90e7&#39;, label=None, is_generic=True)</title>
<path fill="none" stroke="black" d="M73.25,-130.72C73.25,-121.33 73.25,-109.13 73.25,-96.86"/>
<polygon fill="black" stroke="black" points="76.75,-97.16 73.25,-87.16 69.75,-97.16 76.75,-97.16"/>
<text xml:space="preserve" text-anchor="middle" x="75.12" y="-105.36" font-family="Times,serif" font-size="8.00">1</text>
</g>
</g>
</svg>
