<?xml version="1.0" encoding="UTF-8" standalone="no"?>
<!DOCTYPE svg PUBLIC "-//W3C//DTD SVG 1.1//EN"
 "http://www.w3.org/Graphics/SVG/1.1/DTD/svg11.dtd">
<!-- Generated by graphviz version 13.1.2 (0)
 -->
<!-- Title: EG Pages: 1 -->
<svg width="155pt" height="186pt"
 viewBox="0.00 0.00 155.00 186.00" xmlns="http://www.w3.org/2000/svg" xmlns:xlink="http://www.w3.org/1999/xlink">
<g id="graph0" class="graph" transform="scale(1 1) rotate(0) translate(4 182.25)">
<title>EG</title>
<polygon fill="white" stroke="none" points="-4,4 -4,-182.25 150.5,-182.25 150.5,4 -4,4"/>
<text xml:space="preserve" text-anchor="middle" x="73.25" y="-162.85" font-family="Times,serif" font-size="12.00">EGIF: [*x] ~[ (phoenix x) ]</text>
<g id="clust1" class="cluster">
<title>cluster_0_0</title>
<polygon fill="lightgray" stroke="black" stroke-width="2" points="38.25,-73.75 38.25,-148 108.25,-148 108.25,-73.75 38.25,-73.75"/>
<text xml:space="preserve" text-anchor="middle" x="73.25" y="-132.6" font-family="Times,serif" font-size="12.00">Cut</text>
</g>
<!-- pred_e_af5b97f4 -->
<g id="node1" class="node">
<title>pred_e_af5b97f4</title>
<polygon fill="lightgreen" stroke="black" points="100.25,-117.75 46.25,-117.75 46.25,-81.75 100.25,-81.75 100.25,-117.75"/>
<text xml:space="preserve" text-anchor="middle" x="73.25" y="-95.88" font-family="Times,serif" font-size="10.00">phoenix</text>
</g>
<!-- Vertex(id=&#39;v_4581d5b0&#39;, label=None, is_generic=True) -->
<g id="node2" class="node">
<title>Vertex(id=&#39;v_4581d5b0&#39;, label=None, is_generic=True)</title>
<ellipse fill="lightblue" stroke="black" cx="73.25" cy="-18" rx="34.32" ry="18"/>
<text xml:space="preserve" text-anchor="middle" x="73.25" y="-14.12" font-family="Times,serif" font-size="10.00">4581d5b0</text>
</g>
<!-- pred_e_af5b97f4&#45;&gt;Vertex(id=&#39;v_4581d5b0&#39;, label=None, is_generic=True) -->
<g id="edge1" class="edge">
<title>pred_e_af5b97f4&#45;&gt;Vertex(id=&#39;v_4581d5b0&#39;, label=None, is_generic=True)</title>
<path fill="none" stroke="darkblue" d="M73.25,-81.45C73.25,-71.52 73.25,-58.81 73.25,-47.45"/>
<polygon fill="darkblue" stroke="darkblue" points="76.75,-47.78 73.25,-37.78 69.75,-47.78 76.75,-47.78"/>
<text xml:space="preserve" text-anchor="middle" x="75.12" y="-56.15" font-family="Times,serif" font-size="8.00">1</text>
</g>
</g>
</svg>
